<svg width="813" height="191" viewBox="0 0 813 191" fill="none" xmlns="http://www.w3.org/2000/svg">
<path d="M64.375 124V30.9091H131.466V51.2727H89.6477V67.2727H128.011V87.6364H89.6477V103.636H131.284V124H64.375ZM169.636 124.909C164.667 124.909 160.091 123.606 155.909 121C151.758 118.394 148.424 114.439 145.909 109.136C143.424 103.833 142.182 97.1515 142.182 89.0909C142.182 80.6667 143.485 73.8182 146.091 68.5455C148.727 63.2727 152.121 59.4091 156.273 56.9545C160.455 54.5 164.848 53.2727 169.455 53.2727C172.909 53.2727 175.939 53.8788 178.545 55.0909C181.152 56.2727 183.333 57.8636 185.091 59.8636C186.848 61.8333 188.182 64 189.091 66.3636H189.455V30.9091H214.545V124H189.636V112.545H189.091C188.121 114.909 186.727 117.03 184.909 118.909C183.121 120.758 180.939 122.227 178.364 123.318C175.818 124.379 172.909 124.909 169.636 124.909ZM178.909 105.636C181.212 105.636 183.182 104.97 184.818 103.636C186.485 102.273 187.758 100.364 188.636 97.9091C189.545 95.4242 190 92.4848 190 89.0909C190 85.6364 189.545 82.6818 188.636 80.2273C187.758 77.7424 186.485 75.8485 184.818 74.5455C183.182 73.2121 181.212 72.5455 178.909 72.5455C176.606 72.5455 174.636 73.2121 173 74.5455C171.394 75.8485 170.152 77.7424 169.273 80.2273C168.424 82.6818 168 85.6364 168 89.0909C168 92.5455 168.424 95.5152 169.273 98C170.152 100.455 171.394 102.348 173 103.682C174.636 104.985 176.606 105.636 178.909 105.636ZM272.136 93.4545V54.1818H297.227V124H273.409V110.727H272.682C271.167 115.182 268.515 118.667 264.727 121.182C260.939 123.667 256.439 124.909 251.227 124.909C246.348 124.909 242.076 123.788 238.409 121.545C234.773 119.303 231.939 116.212 229.909 112.273C227.909 108.333 226.894 103.818 226.864 98.7273V54.1818H251.955V93.4545C251.985 96.9091 252.864 99.6212 254.591 101.591C256.348 103.561 258.803 104.545 261.955 104.545C264.045 104.545 265.848 104.106 267.364 103.227C268.909 102.318 270.091 101.045 270.909 99.4091C271.758 97.7424 272.167 95.7576 272.136 93.4545Z" fill="#1E96FC"/>
<path d="M380.455 61.6364C380.061 60.0303 379.439 58.6212 378.591 57.4091C377.742 56.1667 376.682 55.1212 375.409 54.2727C374.167 53.3939 372.712 52.7424 371.045 52.3182C369.409 51.8636 367.606 51.6364 365.636 51.6364C361.394 51.6364 357.773 52.6515 354.773 54.6818C351.803 56.7121 349.53 59.6364 347.955 63.4545C346.409 67.2727 345.636 71.8788 345.636 77.2727C345.636 82.7273 346.379 87.3939 347.864 91.2727C349.348 95.1515 351.561 98.1212 354.5 100.182C357.439 102.242 361.091 103.273 365.455 103.273C369.303 103.273 372.5 102.712 375.045 101.591C377.621 100.47 379.545 98.8788 380.818 96.8182C382.091 94.7576 382.727 92.3333 382.727 89.5455L387.091 90H365.818V72H407.091V84.9091C407.091 93.3939 405.288 100.652 401.682 106.682C398.106 112.682 393.167 117.288 386.864 120.5C380.591 123.682 373.394 125.273 365.273 125.273C356.212 125.273 348.258 123.348 341.409 119.5C334.561 115.652 329.212 110.167 325.364 103.045C321.545 95.9242 319.636 87.4545 319.636 77.6364C319.636 69.9394 320.803 63.1212 323.136 57.1818C325.5 51.2424 328.773 46.2273 332.955 42.1364C337.136 38.0151 341.97 34.9091 347.455 32.8182C352.939 30.697 358.818 29.6364 365.091 29.6364C370.606 29.6364 375.727 30.4242 380.455 32C385.212 33.5455 389.409 35.7576 393.045 38.6364C396.712 41.4848 399.667 44.8636 401.909 48.7727C404.152 52.6818 405.515 56.9697 406 61.6364H380.455ZM438.693 125.091C434.239 125.091 430.299 124.364 426.875 122.909C423.481 121.424 420.814 119.182 418.875 116.182C416.936 113.182 415.966 109.364 415.966 104.727C415.966 100.909 416.617 97.6515 417.92 94.9545C419.223 92.2273 421.042 90 423.375 88.2727C425.708 86.5455 428.42 85.2273 431.511 84.3182C434.633 83.4091 437.996 82.8182 441.602 82.5455C445.511 82.2424 448.648 81.8788 451.011 81.4545C453.405 81 455.133 80.3788 456.193 79.5909C457.254 78.7727 457.784 77.697 457.784 76.3636V76.1818C457.784 74.3636 457.087 72.9697 455.693 72C454.299 71.0303 452.511 70.5455 450.33 70.5455C447.936 70.5455 445.981 71.0758 444.466 72.1364C442.981 73.1667 442.087 74.7576 441.784 76.9091H418.693C418.996 72.6667 420.345 68.7576 422.739 65.1818C425.163 61.5758 428.693 58.697 433.33 56.5455C437.966 54.3636 443.754 53.2727 450.693 53.2727C455.693 53.2727 460.178 53.8636 464.148 55.0455C468.117 56.197 471.496 57.8182 474.284 59.9091C477.072 61.9697 479.193 64.3939 480.648 67.1818C482.133 69.9394 482.875 72.9394 482.875 76.1818V124H459.42V114.182H458.875C457.481 116.788 455.784 118.894 453.784 120.5C451.814 122.106 449.557 123.273 447.011 124C444.496 124.727 441.723 125.091 438.693 125.091ZM446.875 109.273C448.784 109.273 450.572 108.879 452.239 108.091C453.936 107.303 455.314 106.167 456.375 104.682C457.436 103.197 457.966 101.394 457.966 99.2727V93.4545C457.299 93.7273 456.587 93.9848 455.83 94.2273C455.102 94.4697 454.314 94.697 453.466 94.9091C452.648 95.1212 451.769 95.3182 450.83 95.5C449.92 95.6818 448.966 95.8485 447.966 96C446.027 96.303 444.436 96.803 443.193 97.5C441.981 98.1667 441.072 99 440.466 100C439.89 100.97 439.602 102.061 439.602 103.273C439.602 105.212 440.284 106.697 441.648 107.727C443.011 108.758 444.754 109.273 446.875 109.273ZM494.864 124V54.1818H518.682V67.4545H519.409C520.864 63.0909 523.348 59.6364 526.864 57.0909C530.379 54.5455 534.561 53.2727 539.409 53.2727C544.318 53.2727 548.545 54.5758 552.091 57.1818C555.636 59.7576 557.773 63.1818 558.5 67.4545H559.227C560.409 63.1818 562.924 59.7576 566.773 57.1818C570.621 54.5758 575.136 53.2727 580.318 53.2727C587.015 53.2727 592.439 55.4242 596.591 59.7273C600.773 64.0303 602.864 69.7576 602.864 76.9091V124H577.773V83.2727C577.773 80.2121 577 77.8182 575.455 76.0909C573.909 74.3333 571.833 73.4545 569.227 73.4545C566.652 73.4545 564.606 74.3333 563.091 76.0909C561.606 77.8182 560.864 80.2121 560.864 83.2727V124H536.864V83.2727C536.864 80.2121 536.091 77.8182 534.545 76.0909C533 74.3333 530.924 73.4545 528.318 73.4545C526.591 73.4545 525.106 73.8485 523.864 74.6364C522.621 75.4242 521.652 76.5606 520.955 78.0455C520.288 79.5 519.955 81.2424 519.955 83.2727V124H494.864ZM615.239 124V54.1818H640.33V124H615.239ZM627.784 46.9091C624.39 46.9091 621.481 45.7879 619.057 43.5455C616.633 41.303 615.42 38.6061 615.42 35.4545C615.42 32.303 616.633 29.6061 619.057 27.3636C621.481 25.1212 624.39 24 627.784 24C631.208 24 634.117 25.1212 636.511 27.3636C638.936 29.6061 640.148 32.303 640.148 35.4545C640.148 38.6061 638.936 41.303 636.511 43.5455C634.117 45.7879 631.208 46.9091 627.784 46.9091ZM678.205 84.7273V124H653.114V54.1818H676.932V67.4545H677.659C679.174 63.0303 681.841 59.5606 685.659 57.0455C689.508 54.5303 693.992 53.2727 699.114 53.2727C704.053 53.2727 708.341 54.4091 711.977 56.6818C715.644 58.9242 718.477 62.0151 720.477 65.9545C722.508 69.8939 723.508 74.3939 723.477 79.4545V124H698.386V84.7273C698.417 81.2727 697.538 78.5606 695.75 76.5909C693.992 74.6212 691.538 73.6364 688.386 73.6364C686.326 73.6364 684.523 74.0909 682.977 75C681.462 75.8788 680.295 77.1515 679.477 78.8182C678.659 80.4545 678.235 82.4242 678.205 84.7273ZM769.5 151.636C762.5 151.636 756.5 150.636 751.5 148.636C746.53 146.667 742.667 143.939 739.909 140.455C737.182 137 735.652 133.03 735.318 128.545H759.5C759.742 130.03 760.348 131.227 761.318 132.136C762.288 133.045 763.53 133.697 765.045 134.091C766.591 134.515 768.318 134.727 770.227 134.727C773.47 134.727 776.152 133.939 778.273 132.364C780.424 130.788 781.5 127.939 781.5 123.818V112H780.773C779.864 114.364 778.47 116.379 776.591 118.045C774.712 119.682 772.455 120.939 769.818 121.818C767.182 122.667 764.288 123.091 761.136 123.091C756.167 123.091 751.591 121.939 747.409 119.636C743.258 117.333 739.924 113.682 737.409 108.682C734.924 103.682 733.682 97.1515 733.682 89.0909C733.682 80.6667 734.985 73.8182 737.591 68.5455C740.227 63.2727 743.621 59.4091 747.773 56.9545C751.955 54.5 756.348 53.2727 760.955 53.2727C764.409 53.2727 767.439 53.8788 770.045 55.0909C772.652 56.2727 774.833 57.8636 776.591 59.8636C778.348 61.8333 779.682 64 780.591 66.3636H781.136V54.1818H806.227V123.818C806.227 129.727 804.697 134.742 801.636 138.864C798.606 143.015 794.333 146.182 788.818 148.364C783.303 150.545 776.864 151.636 769.5 151.636ZM770.409 105.273C772.712 105.273 774.682 104.636 776.318 103.364C777.985 102.061 779.258 100.212 780.136 97.8182C781.045 95.3939 781.5 92.4848 781.5 89.0909C781.5 85.6364 781.045 82.6818 780.136 80.2273C779.258 77.7424 777.985 75.8485 776.318 74.5455C774.682 73.2121 772.712 72.5455 770.409 72.5455C768.106 72.5455 766.136 73.2121 764.5 74.5455C762.894 75.8485 761.652 77.7424 760.773 80.2273C759.924 82.6818 759.5 85.6364 759.5 89.0909C759.5 92.5455 759.924 95.4848 760.773 97.9091C761.652 100.303 762.894 102.136 764.5 103.409C766.136 104.652 768.106 105.273 770.409 105.273Z" fill="black"/>
<path d="M1.75736 141.757C-0.585786 144.101 -0.585786 147.899 1.75736 150.243L39.9411 188.426C42.2843 190.77 46.0833 190.77 48.4264 188.426C50.7696 186.083 50.7696 182.284 48.4264 179.941L14.4853 146L48.4264 112.059C50.7696 109.716 50.7696 105.917 48.4264 103.574C46.0833 101.23 42.2843 101.23 39.9411 103.574L1.75736 141.757ZM6 152H727V140H6V152Z" fill="#1E96FC"/>
</svg>
